<svg width="480" height="225" xmlns="http://www.w3.org/2000/svg"><path fill="#b42e0c" fill-rule="evenodd" d="M34.887.077c-6.479 0-11.73 5.252-11.73 11.73 0 6.48 5.251 11.732 11.73 11.732h61.525c6.479 0 11.73-5.252 11.73-11.731S102.892.077 96.413.077Z"/><filter id="a" x="0" y="0" width="480" height="225" filterUnits="userSpaceOnUse" primitiveUnits="userSpaceOnUse" color-interpolation-filters="sRGB"><feGaussianBlur stdDeviation="5.95"/><feOffset dy="4.959" result="offsetblur"/><feFlood flood-color="#000" flood-opacity=".5"/><feComposite in2="offsetblur" operator="in"/><feMerge><feMergeNode/><feMergeNode in="SourceGraphic"/></feMerge></filter><path fill="none" stroke="#b42e0c" stroke-width="16.528" stroke-linecap="round" stroke-linejoin="round" filter="url(#a)" d="M29.434 17.59c-7.302 0-13.222 5.92-13.222 13.223V189.75c0 7.303 5.92 13.223 13.222 13.223H450.41c7.302 0 13.222-5.92 13.222-13.223V30.813c0-7.302-5.92-13.222-13.222-13.222Z"/><path fill="#e2500c" fill-opacity=".809" fill-rule="evenodd" d="M29.434 17.59c-7.302 0-13.222 5.92-13.222 13.223V189.75c0 7.303 5.92 13.223 13.222 13.223H450.41c7.302 0 13.222-5.92 13.222-13.223V30.813c0-7.302-5.92-13.222-13.222-13.222Z"/></svg>
