<?xml version="1.0" encoding="UTF-8"?>
<!-- Generated by Pixelmator Pro 2.4.2 -->
<svg width="1097" height="1097" viewBox="0 0 1097 1097" xmlns="http://www.w3.org/2000/svg" xmlns:xlink="http://www.w3.org/1999/xlink">
    <linearGradient id="linearGradient1" x1="620.5" y1="916" x2="620.5" y2="111" gradientUnits="userSpaceOnUse">
        <stop offset="0" stop-color="#dc2b20" stop-opacity="1"/>
        <stop offset="1" stop-color="#dc5262" stop-opacity="1"/>
    </linearGradient>
    <path id="Ondergrond" fill="url(#linearGradient1)" fill-rule="evenodd" stroke="none" d="M 144 916 L 1097 916 L 1097 111 L 144 111 Z"/>
    <g id="Blaadje-recht">
        <linearGradient id="linearGradient2" x1="1057.666969" y1="79.511955" x2="303.302582" y2="796.821482" gradientUnits="userSpaceOnUse">
            <stop offset="0" stop-color="#ffffff" stop-opacity="1"/>
            <stop offset="1" stop-color="#e7e7e7" stop-opacity="1"/>
        </linearGradient>
        <filter id="filter1" x="0" y="0" width="1097" height="1097" filterUnits="userSpaceOnUse" primitiveUnits="userSpaceOnUse" color-interpolation-filters="sRGB">
            <feGaussianBlur stdDeviation="21"/>
            <feOffset dx="-15.241087" dy="14.446773" result="offsetblur"/>
            <feFlood flood-color="#000000" flood-opacity="0.5"/>
            <feComposite in2="offsetblur" operator="in"/>
            <feMerge>
                <feMergeNode/>
                <feMergeNode in="SourceGraphic"/>
            </feMerge>
        </filter>
        <path id="Rectangle" fill="url(#linearGradient2)" fill-rule="evenodd" stroke="none" filter="url(#filter1)" d="M 183 878 L 1060 878 L 1060 73 L 183 73 Z"/>
        <filter id="filter2" x="0" y="0" width="1097" height="1097" filterUnits="userSpaceOnUse" primitiveUnits="userSpaceOnUse" color-interpolation-filters="sRGB">
            <feFlood flood-color="#000000" flood-opacity="0.5"/>
            <feComposite in2="SourceGraphic" operator="out"/>
            <feGaussianBlur stdDeviation="5"/>
            <feOffset dx="0" dy="6"/>
            <feComposite in2="SourceGraphic" operator="atop"/>
        </filter>
        <path id="Ellipse" fill="#ffffff" fill-rule="evenodd" stroke="none" filter="url(#filter2)" d="M 377.260864 203 C 377.260864 188.088318 365.114166 176 350.130432 176 C 335.146698 176 323 188.088318 323 203 C 323 217.911682 335.146698 230 350.130432 230 C 365.114166 230 377.260864 217.911682 377.260864 203 Z"/>
        <filter id="filter3" x="0" y="0" width="1097" height="1097" filterUnits="userSpaceOnUse" primitiveUnits="userSpaceOnUse" color-interpolation-filters="sRGB">
            <feFlood flood-color="#000000" flood-opacity="0.5"/>
            <feComposite in2="SourceGraphic" operator="out"/>
            <feGaussianBlur stdDeviation="5"/>
            <feOffset dx="0" dy="6"/>
            <feComposite in2="SourceGraphic" operator="atop"/>
        </filter>
        <path id="Ellipse-copy" fill="#ffffff" fill-rule="evenodd" stroke="none" filter="url(#filter3)" d="M 920.260864 203 C 920.260864 188.088318 908.114136 176 893.130432 176 C 878.146729 176 866 188.088318 866 203 C 866 217.911682 878.146729 230 893.130432 230 C 908.114136 230 920.260864 217.911682 920.260864 203 Z"/>
    </g>
    <g id="Blaadje-schuin">
        <linearGradient id="linearGradient3" x1="1003.724615" y1="144.520531" x2="249.360227" y2="861.830058" gradientUnits="userSpaceOnUse">
            <stop offset="0" stop-color="#ffffff" stop-opacity="1"/>
            <stop offset="1" stop-color="#e7e7e7" stop-opacity="1"/>
        </linearGradient>
        <filter id="filter4" x="0" y="0" width="1097" height="1097" filterUnits="userSpaceOnUse" primitiveUnits="userSpaceOnUse" color-interpolation-filters="sRGB">
            <feGaussianBlur stdDeviation="21"/>
            <feOffset dx="-15.241087" dy="14.446773" result="offsetblur"/>
            <feFlood flood-color="#000000" flood-opacity="0.5"/>
            <feComposite in2="offsetblur" operator="in"/>
            <feMerge>
                <feMergeNode/>
                <feMergeNode in="SourceGraphic"/>
            </feMerge>
        </filter>
        <path id="path1" fill="url(#linearGradient3)" fill-rule="evenodd" stroke="none" filter="url(#filter4)" d="M 49.753574 834.051514 L 904.276123 1031.333618 L 1085.361694 246.965637 L 230.839172 49.683594 Z"/>
        <filter id="filter5" x="0" y="0" width="1097" height="1097" filterUnits="userSpaceOnUse" primitiveUnits="userSpaceOnUse" color-interpolation-filters="sRGB">
            <feFlood flood-color="#000000" flood-opacity="0.5"/>
            <feComposite in2="SourceGraphic" operator="out"/>
            <feGaussianBlur stdDeviation="5"/>
            <feOffset dx="0" dy="6"/>
            <feComposite in2="SourceGraphic" operator="atop"/>
        </filter>
        <path id="path2" fill="#ffffff" fill-rule="evenodd" stroke="none" filter="url(#filter5)" d="M 390.877502 220.050903 C 394.231903 205.521362 385.115784 191.010498 370.516113 187.639893 C 355.916412 184.269287 341.361755 193.315369 338.007355 207.844849 C 334.652954 222.374329 343.769043 236.885254 358.368744 240.255859 C 372.968445 243.626465 387.523102 234.580383 390.877502 220.050903 Z"/>
        <filter id="filter6" x="0" y="0" width="1097" height="1097" filterUnits="userSpaceOnUse" primitiveUnits="userSpaceOnUse" color-interpolation-filters="sRGB">
            <feFlood flood-color="#000000" flood-opacity="0.5"/>
            <feComposite in2="SourceGraphic" operator="out"/>
            <feGaussianBlur stdDeviation="5"/>
            <feOffset dx="0" dy="6"/>
            <feComposite in2="SourceGraphic" operator="atop"/>
        </filter>
        <path id="path3" fill="#ffffff" fill-rule="evenodd" stroke="none" filter="url(#filter6)" d="M 919.960449 342.19928 C 923.31488 327.6698 914.19873 313.158875 899.59906 309.788269 C 884.999329 306.417664 870.444702 315.463745 867.090271 329.993286 C 863.735901 344.522766 872.85199 359.033691 887.451721 362.404297 C 902.051392 365.774902 916.606079 356.728821 919.960449 342.19928 Z"/>
    </g>
</svg>
