<svg xmlns="http://www.w3.org/2000/svg" viewBox="0 0 3024 387"><path fill="none" stroke="#000" stroke-linecap="round" stroke-linejoin="round" stroke-width="3" d="M3024 .5c0-36.727-676.946-66.5-1512-66.5C676.945-66 0-36.227 0 .5 0 37.227 676.945 67 1512 67c835.054 0 1512-29.773 1512-66.5Z"/><defs><linearGradient id="a" x1="207.418" x2="179.877" y1="36.438" y2="351.235" gradientUnits="userSpaceOnUse"><stop offset="0" stop-color="#dc2b20"/><stop offset="1" stop-color="#dc5262"/></linearGradient></defs><path fill="url(#a)" d="M179.877 351.235 47.634 22.458l319.568 27.959Z"/><defs><linearGradient id="b" x1="542.732" x2="531.702" y1="52.136" y2="367.989" gradientUnits="userSpaceOnUse"><stop offset="0" stop-color="#ffa801"/><stop offset="1" stop-color="#ffcc01"/></linearGradient></defs><path fill="url(#b)" d="M530.125 367.759 380.857 46.354 701.45 57.549Z"/><defs><linearGradient id="c" x1="870.976" x2="865.46" y1="61.043" y2="377.04" gradientUnits="userSpaceOnUse"><stop offset="0" stop-color="#cb43f6"/><stop offset="1" stop-color="#ec4cbd"/></linearGradient></defs><path fill="url(#c)" d="M863.879 376.837 709.024 58.086l320.74 5.599Z"/><defs><linearGradient id="d" x1="1198.219" x2="1198.219" y1="66.998" y2="383.043" gradientUnits="userSpaceOnUse"><stop offset="0" stop-color="#1c70f2"/><stop offset="1" stop-color="#1ac9fb"/></linearGradient></defs><path fill="url(#d)" d="m1196.634 382.868-160.394-316h320.789Z"/><defs><linearGradient id="e" x1="1543.261" x2="1543.176" y1="66.998" y2="383.043" gradientUnits="userSpaceOnUse"><stop offset="0" stop-color="#0495a0"/><stop offset="1" stop-color="#05b6be"/></linearGradient></defs><path fill="url(#e)" d="m1541.634 382.868-160.394-316h320.789Z"/><defs><linearGradient id="f" x1="1879.733" x2="1886.599" y1="19.555" y2="412.951" gradientUnits="userSpaceOnUse"><stop offset="0" stop-color="#ffc9f3"/><stop offset="1" stop-color="#e6dee9"/></linearGradient></defs><path fill="url(#f)" d="M1889.39 383.85 1723.505 70.698l320.74-5.599Z"/><defs><linearGradient id="g" x1="2211.461" x2="2216.977" y1="61.001" y2="376.997" gradientUnits="userSpaceOnUse"><stop offset="0" stop-color="#ffa801"/><stop offset="1" stop-color="#ffcc01"/></linearGradient></defs><path fill="url(#g)" d="M2215.39 376.85 2049.505 63.698l320.74-5.599Z"/><defs><linearGradient id="h" x1="2535.948" x2="2552.488" y1="50.15" y2="365.762" gradientUnits="userSpaceOnUse"><stop offset="0" stop-color="#1c70f2"/><stop offset="1" stop-color="#1ac9fb"/></linearGradient></defs><path fill="url(#h)" d="M2550.897 365.671 2374.184 58.498l320.349-16.789Z"/><defs><linearGradient id="i" x1="2851.832" x2="2885.008" y1="31.963" y2="347.613" gradientUnits="userSpaceOnUse"><stop offset="0" stop-color="#cb43f6"/><stop offset="1" stop-color="#ec4cbd"/></linearGradient></defs><path fill="url(#i)" d="M2883.48 347.596 2697.504 48.052l305.61-32.121Z"/></svg>
