<?xml version="1.0" standalone="no"?>
<!DOCTYPE svg PUBLIC "-//W3C//DTD SVG 20010904//EN"
 "http://www.w3.org/TR/2001/REC-SVG-20010904/DTD/svg10.dtd">
<svg version="1.0" xmlns="http://www.w3.org/2000/svg"
 width="690.000000pt" height="690.000000pt" viewBox="0 0 690.000000 690.000000"
 preserveAspectRatio="xMidYMid meet">
<metadata>
Created by potrace 1.14, written by Peter Selinger 2001-2017
</metadata>
<g transform="translate(0.000000,690.000000) scale(0.100000,-0.100000)"
fill="#000000" stroke="none">
<path d="M0 3450 l0 -3450 3450 0 3450 0 0 3450 0 3450 -3450 0 -3450 0 0
-3450z m5666 260 c624 -1416 1137 -2583 1140 -2592 5 -17 -33 -18 -792 -16
l-798 3 -211 527 -210 528 -1130 0 -1131 0 -216 -527 -217 -528 -800 -3 -800
-2 46 102 c25 57 538 1217 1140 2578 602 1361 1099 2483 1104 2493 9 16 59 17
875 15 l866 -3 1134 -2575z"/>
<path d="M3281 4004 c-210 -520 -381 -948 -378 -950 2 -2 348 -3 769 -2 l766
3 -381 948 c-210 521 -384 947 -387 947 -3 0 -178 -426 -389 -946z"/>
</g>
</svg>
