<svg xmlns="http://www.w3.org/2000/svg" width="853.333" height="853.333" preserveAspectRatio="xMidYMid meet" version="1.0" viewBox="0 0 640 640"><metadata>Created by potrace 1.14, written by Peter Selinger 2001-2017</metadata><g fill="#000" stroke="none"><path d="M1185 6389 c-576 -74 -1044 -515 -1162 -1097 -17 -82 -18 -213 -18 -2092 0 -1879 1 -2010 18 -2092 113 -554 531 -972 1085 -1085 82 -17 213 -18 2092 -18 1879 0 2010 1 2092 18 554 113 972 531 1085 1085 17 82 18 213 18 2092 0 1879 -1 2010 -18 2092 -111 547 -509 952 -1062 1081 -90 21 -94 21 -2075 23 -1120 1 -2015 -2 -2055 -7z m3565 -3196 c481 -1093 880 -1999 887 -2015 l12 -28 -622 0 -622 0 -165 410 -164 410 -875 -2 -875 -3 -165 -407 -166 -408 -623 0 -622 0 14 32 c7 18 402 911 876 1983 475 1073 869 1965 877 1983 l13 32 673 0 672 0 875 -1987z" transform="translate(0.000000,640.000000) scale(0.100000,-0.100000)"/><path d="M2912 3407 c-161 -397 -292 -725 -292 -729 0 -5 265 -8 588 -8 l589 0 -290 723 c-159 397 -292 725 -296 729 -3 4 -138 -318 -299 -715z" transform="translate(0.000000,640.000000) scale(0.100000,-0.100000)"/></g></svg>