<?xml version="1.0" standalone="no"?>
<!DOCTYPE svg PUBLIC "-//W3C//DTD SVG 20010904//EN"
 "http://www.w3.org/TR/2001/REC-SVG-20010904/DTD/svg10.dtd">
<svg version="1.0" xmlns="http://www.w3.org/2000/svg"
 width="640.000000pt" height="640.000000pt" viewBox="0 0 640.000000 640.000000"
 preserveAspectRatio="xMidYMid meet">
<metadata>
Created by potrace 1.14, written by Peter Selinger 2001-2017
</metadata>
<g transform="translate(0.000000,640.000000) scale(0.100000,-0.100000)"
fill="#000000" stroke="none">
<path d="M2513 5142 c-19 -46 -197 -452 -223 -507 -34 -74 -60 -134 -60 -139
0 -2 -20 -47 -45 -100 -25 -53 -45 -99 -45 -101 0 -3 -13 -33 -29 -67 -16 -35
-55 -121 -86 -193 -31 -71 -65 -148 -75 -170 -26 -56 -273 -617 -360 -815 -40
-91 -87 -197 -106 -236 -19 -39 -34 -74 -34 -77 0 -4 -20 -50 -45 -103 -25
-53 -45 -98 -45 -101 0 -4 -11 -29 -24 -57 -13 -28 -38 -85 -56 -126 -18 -41
-46 -103 -61 -138 -16 -34 -29 -64 -29 -66 0 -2 -16 -39 -36 -83 -20 -43 -44
-96 -54 -118 -9 -22 -26 -58 -36 -80 -10 -22 -18 -42 -19 -45 0 -3 -8 -21 -17
-40 -25 -52 -61 -134 -64 -145 -1 -5 -46 -107 -99 -225 -54 -118 -101 -225
-106 -238 l-9 -22 623 0 622 0 104 258 c58 141 111 272 118 289 7 18 13 35 13
38 -1 3 6 18 14 33 8 15 29 63 46 107 18 44 34 82 37 85 3 3 396 5 874 6 615
0 872 -2 878 -10 4 -6 79 -190 167 -408 l159 -398 622 0 622 0 -18 43 c-23 52
-165 373 -193 436 -11 25 -26 60 -33 76 -16 35 -239 542 -265 600 -10 22 -32
74 -50 115 -18 41 -50 113 -71 158 -21 46 -39 87 -39 91 0 4 -11 29 -24 57
-13 27 -63 139 -111 249 -48 110 -95 218 -105 240 -10 22 -53 119 -95 215
-106 240 -184 417 -205 465 -45 101 -252 571 -337 765 -111 254 -114 259 -146
330 -13 30 -35 80 -47 110 -13 30 -28 60 -33 67 -6 9 -168 12 -679 12 l-670 0
-15 -37z m705 -1019 c0 -5 3 -17 7 -28 5 -11 135 -336 290 -722 l282 -703 -39
-1 c-21 0 -281 0 -578 0 -297 0 -547 0 -555 0 -12 1 -13 5 -6 19 5 9 57 136
116 282 59 146 134 330 166 410 33 80 114 281 181 448 67 166 126 302 130 302
4 0 7 -3 6 -7z"/>
</g>
</svg>
