<?xml version="1.0" encoding="UTF-8"?>
<!-- Generated by Pixelmator Pro 2.4.2 -->
<svg width="553" height="552" viewBox="0 0 553 552" xmlns="http://www.w3.org/2000/svg" xmlns:xlink="http://www.w3.org/1999/xlink">
    <linearGradient id="linearGradient1" x1="278.726302" y1="551.773036" x2="278.726302" y2="-0.305597" gradientUnits="userSpaceOnUse">
        <stop offset="0" stop-color="#ffa801" stop-opacity="1"/>
        <stop offset="1" stop-color="#ffcc01" stop-opacity="1"/>
    </linearGradient>
    <path id="Ellipse" fill="url(#linearGradient1)" fill-rule="evenodd" stroke="none" d="M 552 276 C 552 123.569397 428.430603 0 276 0 C 123.569412 0 0 123.569397 0 276 C 0 428.430603 123.569412 552 276 552 C 428.430603 552 552 428.430603 552 276 Z"/>
    <linearGradient id="linearGradient2" x1="1.524134" y1="275.73372" x2="314.67865" y2="275.73372" gradientUnits="userSpaceOnUse">
        <stop offset="0" stop-color="#00365b" stop-opacity="1"/>
        <stop offset="1" stop-color="#001523" stop-opacity="1"/>
    </linearGradient>
    <path id="Path" fill="url(#linearGradient2)" fill-rule="evenodd" stroke="none" d="M 60 276 C 57.983887 53.916626 428.430664 0 276 0 C 123.569458 0 0 123.569336 0 276 C 0 428.430542 123.569458 552 276 552 C 428.430664 552 62.150513 512.886353 60 276 Z"/>
</svg>
